
<svg width="20px" height="18px" viewBox="0 0 20 18" version="1.1" 
    xmlns="http://www.w3.org/2000/svg" 
    xmlns:xlink="http://www.w3.org/1999/xlink">
    <!-- Generator: Sketch 50.2 (55047) - http://www.bohemiancoding.com/sketch -->
    <desc>Created with Sketch.</desc>
    <defs></defs>
    <g id="Page-1" stroke="none" stroke-width="1" fill="none" fill-rule="evenodd">
        <g id="Main" transform="translate(-390.000000, -234.000000)" fill="#FF5555">
            <g id="results" transform="translate(62.000000, 213.000000)">
                <g id="items">
                    <g id="item-2" transform="translate(310.000000, 0.000000)">
                        <g id="add-to-favorite" transform="translate(10.000000, 10.000000)">
                            <g id="heart" transform="translate(8.000000, 11.000000)">
                                <g id="Shape">
                                    <path d="M10,17.1428571 C9.80654762,17.1428571 9.64285714,17.0758929 9.50892857,16.9419643 L2.54464286,10.2232143 C2.4702381,10.1636905 2.36793155,10.0669643 2.23772321,9.93303571 C2.10751488,9.79910714 1.90104167,9.55543155 1.61830357,9.20200893 C1.33556548,8.84858631 1.08258929,8.4858631 0.859375,8.11383929 C0.636160714,7.74181548 0.437127976,7.29166667 0.262276786,6.76339286 C0.0874255952,6.23511905 0,5.72172619 0,5.22321429 C0,3.58630952 0.472470238,2.30654762 1.41741071,1.38392857 C2.36235119,0.461309524 3.66815476,0 5.33482143,0 C5.79613095,0 6.26674107,0.079985119 6.74665179,0.239955357 C7.2265625,0.399925595 7.67299107,0.615699405 8.0859375,0.887276786 C8.49888393,1.15885417 8.85416667,1.41369048 9.15178571,1.65178571 C9.44940476,1.88988095 9.73214286,2.14285714 10,2.41071429 C10.2678571,2.14285714 10.5505952,1.88988095 10.8482143,1.65178571 C11.1458333,1.41369048 11.5011161,1.15885417 11.9140625,0.887276786 C12.3270089,0.615699405 12.7734375,0.399925595 13.2533482,0.239955357 C13.7332589,0.079985119 14.203869,0 14.6651786,0 C16.3318452,0 17.6376488,0.461309524 18.5825893,1.38392857 C19.5275298,2.30654762 20,3.58630952 20,5.22321429 C20,6.86755952 19.1480655,8.54166667 17.4441964,10.2455357 L10.4910714,16.9419643 C10.3571429,17.0758929 10.1934524,17.1428571 10,17.1428571 Z" fill-rule="nonzero"></path>
                                </g>
                            </g>
                        </g>
                    </g>
                </g>
            </g>
        </g>
    </g>
</svg>